<svg width="24" height="25" viewBox="0 0 24 25" fill="none" xmlns="http://www.w3.org/2000/svg">
<mask id="mask0_137_47" style="mask-type:alpha" maskUnits="userSpaceOnUse" x="0" y="0" width="24" height="25">
<rect y="0.5" width="24" height="24" fill="#D9D9D9"/>
</mask>
<g mask="url(#mask0_137_47)">
<path d="M5 22.5C4.45 22.5 3.97917 22.3042 3.5875 21.9125C3.19583 21.5208 3 21.05 3 20.5V8.5C3 7.95 3.19583 7.47917 3.5875 7.0875C3.97917 6.69583 4.45 6.5 5 6.5H7C7 5.11667 7.4875 3.9375 8.4625 2.9625C9.4375 1.9875 10.6167 1.5 12 1.5C13.3833 1.5 14.5625 1.9875 15.5375 2.9625C16.5125 3.9375 17 5.11667 17 6.5H19C19.55 6.5 20.0208 6.69583 20.4125 7.0875C20.8042 7.47917 21 7.95 21 8.5V20.5C21 21.05 20.8042 21.5208 20.4125 21.9125C20.0208 22.3042 19.55 22.5 19 22.5H5ZM5 20.5H19V8.5H5V20.5ZM12 14.5C13.3833 14.5 14.5625 14.0125 15.5375 13.0375C16.5125 12.0625 17 10.8833 17 9.5H15C15 10.3333 14.7083 11.0417 14.125 11.625C13.5417 12.2083 12.8333 12.5 12 12.5C11.1667 12.5 10.4583 12.2083 9.875 11.625C9.29167 11.0417 9 10.3333 9 9.5H7C7 10.8833 7.4875 12.0625 8.4625 13.0375C9.4375 14.0125 10.6167 14.5 12 14.5ZM9 6.5H15C15 5.66667 14.7083 4.95833 14.125 4.375C13.5417 3.79167 12.8333 3.5 12 3.5C11.1667 3.5 10.4583 3.79167 9.875 4.375C9.29167 4.95833 9 5.66667 9 6.5Z" fill="#999999"/>
</g>
</svg>
