<svg width="24" height="24" viewBox="0 0 24 24" fill="none" xmlns="http://www.w3.org/2000/svg">
<mask id="mask0_1_66" style="mask-type:alpha" maskUnits="userSpaceOnUse" x="0" y="0" width="24" height="24">
<rect width="24" height="24" fill="#D9D9D9"/>
</mask>
<g mask="url(#mask0_1_66)">
<path d="M12 22L2 7C3.41667 5.8 4.97083 4.83333 6.6625 4.1C8.35417 3.36667 10.1333 3 12 3C13.8667 3 15.6458 3.3625 17.3375 4.0875C19.0292 4.8125 20.5833 5.78333 22 7L12 22ZM12 18.4L19.3 7.45C18.2167 6.7 17.0583 6.10417 15.825 5.6625C14.5917 5.22083 13.3167 5 12 5C10.6833 5 9.4125 5.22083 8.1875 5.6625C6.9625 6.10417 5.8 6.7 4.7 7.45L12 18.4ZM9.5 10C9.91667 10 10.2708 9.85417 10.5625 9.5625C10.8542 9.27083 11 8.91667 11 8.5C11 8.08333 10.8542 7.72917 10.5625 7.4375C10.2708 7.14583 9.91667 7 9.5 7C9.08333 7 8.72917 7.14583 8.4375 7.4375C8.14583 7.72917 8 8.08333 8 8.5C8 8.91667 8.14583 9.27083 8.4375 9.5625C8.72917 9.85417 9.08333 10 9.5 10ZM12 15C12.4167 15 12.7708 14.8542 13.0625 14.5625C13.3542 14.2708 13.5 13.9167 13.5 13.5C13.5 13.0833 13.3542 12.7292 13.0625 12.4375C12.7708 12.1458 12.4167 12 12 12C11.5833 12 11.2292 12.1458 10.9375 12.4375C10.6458 12.7292 10.5 13.0833 10.5 13.5C10.5 13.9167 10.6458 14.2708 10.9375 14.5625C11.2292 14.8542 11.5833 15 12 15Z" fill="#999999"/>
</g>
</svg>
