<svg width="24" height="24" viewBox="0 0 24 24" fill="none" xmlns="http://www.w3.org/2000/svg">
<path d="M12 2C9.34784 2 6.8043 3.05357 4.92893 4.92893C3.05357 6.8043 2 9.34783 2 12C2 14.6522 3.05357 17.1957 4.92893 19.0711C6.80429 20.9464 9.34783 22 12 22L12 12V2Z" fill="#999999"/>
<mask id="path-2-inside-1_1_71" fill="white">
<path d="M12 2C14.6522 2 17.1957 3.05357 19.0711 4.92893C20.9464 6.8043 22 9.34783 22 12C22 14.6522 20.9464 17.1957 19.0711 19.0711C17.1957 20.9464 14.6522 22 12 22L12 12V2Z"/>
</mask>
<path d="M12 2C14.6522 2 17.1957 3.05357 19.0711 4.92893C20.9464 6.8043 22 9.34783 22 12C22 14.6522 20.9464 17.1957 19.0711 19.0711C17.1957 20.9464 14.6522 22 12 22L12 12V2Z" stroke="#999999" stroke-width="2" mask="url(#path-2-inside-1_1_71)"/>
</svg>
