<svg width="24" height="24" viewBox="0 0 24 24" fill="none" xmlns="http://www.w3.org/2000/svg">
<mask id="mask0_1_77" style="mask-type:alpha" maskUnits="userSpaceOnUse" x="0" y="0" width="24" height="24">
<rect width="24" height="24" fill="#D9D9D9"/>
</mask>
<g mask="url(#mask0_1_77)">
<path d="M12 20.5C9.7 20.5 7.69583 19.7375 5.9875 18.2125C4.27917 16.6875 3.3 14.7833 3.05 12.5H5.1C5.33333 14.2333 6.10417 15.6667 7.4125 16.8C8.72083 17.9333 10.25 18.5 12 18.5C13.95 18.5 15.6042 17.8208 16.9625 16.4625C18.3208 15.1042 19 13.45 19 11.5C19 9.55 18.3208 7.89583 16.9625 6.5375C15.6042 5.17917 13.95 4.5 12 4.5C10.85 4.5 9.775 4.76667 8.775 5.3C7.775 5.83333 6.93333 6.56667 6.25 7.5H9V9.5H3V3.5H5V5.85C5.85 4.78333 6.8875 3.95833 8.1125 3.375C9.3375 2.79167 10.6333 2.5 12 2.5C13.25 2.5 14.4208 2.7375 15.5125 3.2125C16.6042 3.6875 17.5542 4.32917 18.3625 5.1375C19.1708 5.94583 19.8125 6.89583 20.2875 7.9875C20.7625 9.07917 21 10.25 21 11.5C21 12.75 20.7625 13.9208 20.2875 15.0125C19.8125 16.1042 19.1708 17.0542 18.3625 17.8625C17.5542 18.6708 16.6042 19.3125 15.5125 19.7875C14.4208 20.2625 13.25 20.5 12 20.5ZM14.8 15.7L11 11.9V6.5H13V11.1L16.2 14.3L14.8 15.7Z" fill="#999999"/>
</g>
</svg>
